<svg width="45" height="48" viewBox="0 0 45 48" fill="none" xmlns="http://www.w3.org/2000/svg">
<path d="M22.5 21.1005C20.6458 21.1005 18.8332 20.5337 17.2915 19.4717C15.7498 18.4097 14.5482 16.9002 13.8386 15.1342C13.1291 13.3682 12.9434 11.4249 13.3051 9.55005C13.6669 7.67523 14.5598 5.9531 15.8709 4.60143C17.182 3.24976 18.8525 2.32927 20.671 1.95634C22.4896 1.58342 24.3746 1.77482 26.0877 2.50633C27.8007 3.23785 29.2649 4.47663 30.295 6.06602C31.3252 7.65542 31.875 9.52404 31.875 11.4356C31.875 13.9989 30.8873 16.4572 29.1291 18.2697C27.371 20.0823 24.9864 21.1005 22.5 21.1005V21.1005ZM22.5 5.63661C21.3875 5.63661 20.2999 5.97672 19.3749 6.61392C18.4499 7.25111 17.7289 8.15679 17.3032 9.21641C16.8774 10.276 16.766 11.442 16.9831 12.5669C17.2001 13.6918 17.7359 14.7251 18.5225 15.5361C19.3092 16.3471 20.3115 16.8994 21.4026 17.1231C22.4938 17.3469 23.6248 17.232 24.6526 16.7931C25.6804 16.3542 26.5589 15.611 27.177 14.6573C27.7951 13.7037 28.125 12.5825 28.125 11.4356C28.125 9.8976 27.5324 8.42261 26.4775 7.33509C25.4226 6.24757 23.9918 5.63661 22.5 5.63661Z" fill="black"/>
<path d="M39.375 46.2294H5.625C5.12772 46.2294 4.65081 46.0257 4.29917 45.6632C3.94754 45.3007 3.75 44.8091 3.75 44.2964V38.4974C3.75 34.3961 5.33035 30.4628 8.1434 27.5628C10.9564 24.6627 14.7718 23.0335 18.75 23.0335H26.25C30.2282 23.0335 34.0436 24.6627 36.8566 27.5628C39.6696 30.4628 41.25 34.3961 41.25 38.4974V44.2964C41.25 44.8091 41.0525 45.3007 40.7008 45.6632C40.3492 46.0257 39.8723 46.2294 39.375 46.2294ZM7.5 42.3634H37.5V38.4974C37.5 35.4215 36.3147 32.4715 34.205 30.2964C32.0952 28.1214 29.2337 26.8995 26.25 26.8995H18.75C15.7663 26.8995 12.9048 28.1214 10.795 30.2964C8.68526 32.4715 7.5 35.4215 7.5 38.4974V42.3634Z" fill="black"/>
</svg>
