<svg width="143" height="42" viewBox="0 0 143 42" fill="none" xmlns="http://www.w3.org/2000/svg">
<path d="M55.8173 32.2169C54.0679 32.2169 52.4573 31.9289 50.9853 31.3529C49.5133 30.7769 48.2333 29.9769 47.1453 28.9529C46.0573 27.9076 45.2146 26.6916 44.6173 25.3049C44.0199 23.8969 43.7213 22.3609 43.7213 20.6969C43.7213 19.0329 44.0199 17.5076 44.6173 16.1209C45.2146 14.7129 46.0573 13.4969 47.1453 12.4729C48.2333 11.4276 49.5133 10.6169 50.9853 10.0409C52.4573 9.46491 54.0573 9.17691 55.7853 9.17691C57.5346 9.17691 59.1346 9.46491 60.5853 10.0409C62.0573 10.6169 63.3373 11.4276 64.4253 12.4729C65.5133 13.4969 66.3559 14.7129 66.9533 16.1209C67.5506 17.5076 67.8493 19.0329 67.8493 20.6969C67.8493 22.3609 67.5506 23.8969 66.9533 25.3049C66.3559 26.7129 65.5133 27.9289 64.4253 28.9529C63.3373 29.9769 62.0573 30.7769 60.5853 31.3529C59.1346 31.9289 57.5453 32.2169 55.8173 32.2169ZM55.7853 28.5689C56.9159 28.5689 57.9613 28.3769 58.9213 27.9929C59.8813 27.6089 60.7133 27.0649 61.4173 26.3609C62.1213 25.6356 62.6653 24.8036 63.0493 23.8649C63.4546 22.9049 63.6573 21.8489 63.6573 20.6969C63.6573 19.5449 63.4546 18.4996 63.0493 17.5609C62.6653 16.6009 62.1213 15.7689 61.4173 15.0649C60.7133 14.3396 59.8813 13.7849 58.9213 13.4009C57.9613 13.0169 56.9159 12.8249 55.7853 12.8249C54.6546 12.8249 53.6093 13.0169 52.6493 13.4009C51.7106 13.7849 50.8786 14.3396 50.1533 15.0649C49.4493 15.7689 48.8946 16.6009 48.4893 17.5609C48.1053 18.4996 47.9133 19.5449 47.9133 20.6969C47.9133 21.8276 48.1053 22.8729 48.4893 23.8329C48.8946 24.7929 49.4493 25.6356 50.1533 26.3609C50.8573 27.0649 51.6893 27.6089 52.6493 27.9929C53.6093 28.3769 54.6546 28.5689 55.7853 28.5689ZM87.2645 31.8969L79.6805 20.9849L83.0405 18.9049L91.9685 31.8969H87.2645ZM72.4485 31.8969V9.49691H76.5445V31.8969H72.4485ZM75.2965 22.4569V18.8729H82.8485V22.4569H75.2965ZM83.4245 21.1769L79.6165 20.6649L87.2645 9.49691H91.6805L83.4245 21.1769ZM110.536 9.49691H114.696V31.8969H110.536V9.49691ZM98.9523 31.8969H94.7923V9.49691H98.9523V31.8969ZM110.856 22.2969H98.6003V18.7449H110.856V22.2969ZM118.132 31.8969L128.212 9.49691H132.308L142.42 31.8969H138.068L129.396 11.7049H131.06L122.42 31.8969H118.132ZM122.772 26.7129L123.892 23.4489H135.988L137.108 26.7129H122.772Z" fill="#2C5585"/>
<path d="M0 5.89691C0 3.13549 2.23858 0.896912 5 0.896912H16V12.3918C16 15.1532 13.7614 17.3918 11 17.3918H5C2.23858 17.3918 0 15.1532 0 12.3918V5.89691Z" fill="#2C5585"/>
<path d="M20 5.89691C20 3.13549 22.2386 0.896912 25 0.896912H36V12.3918C36 15.1532 33.7614 17.3918 31 17.3918H25C22.2386 17.3918 20 15.1532 20 12.3918V5.89691Z" fill="#2C5585"/>
<path d="M0 26.5155C0 23.754 2.23858 21.5155 5 21.5155H16V33.0103C16 35.7717 13.7614 38.0103 11 38.0103H5C2.23858 38.0103 0 35.7717 0 33.0103V26.5155Z" fill="#2C5585"/>
<path d="M20 26.5155C20 23.754 22.2386 21.5155 25 21.5155H36V33.0103C36 35.7717 33.7614 38.0103 31 38.0103H25C22.2386 38.0103 20 35.7717 20 33.0103V26.5155Z" fill="#2C5585"/>
</svg>
