<svg width="45" height="45" viewBox="0 0 45 45" fill="none" xmlns="http://www.w3.org/2000/svg">
<g clip-path="url(#clip0_17_161)">
<path d="M22.5 45C34.9264 45 45 34.9264 45 22.5C45 10.0736 34.9264 0 22.5 0C10.0736 0 0 10.0736 0 22.5C0 34.9264 10.0736 45 22.5 45Z" fill="url(#paint0_linear_17_161)"/>
<path d="M29.3906 43.9254L14.0085 28.5423L12.3488 22.5L12.0063 15.3763L18.2191 21.5891L24.1242 15.204L28.1531 19.2321L35.3325 15.2069L44.8883 24.759C44.8883 24.759 44.6752 26.5522 44.4528 27.4543C44.2304 28.3563 43.9545 29.3747 43.704 30.0446C43.4535 30.7145 43.1856 31.3975 42.9616 31.8711C42.7377 32.3446 42.5248 32.8037 42.2355 33.3145C41.9462 33.8252 41.7943 34.1039 41.5155 34.5329C41.2368 34.9618 40.9309 35.4466 40.5039 35.9973C40.0768 36.5481 39.9994 36.6944 39.432 37.3181C38.8646 37.9418 38.6071 38.2584 37.9634 38.8444C37.3197 39.4303 37.0025 39.741 36.357 40.228C35.7115 40.7149 34.8943 41.3158 34.2007 41.7222C33.507 42.1286 32.9575 42.4488 32.3621 42.729C31.7666 43.0093 31.1718 43.2842 30.634 43.4847C30.0961 43.6853 29.9432 43.7558 29.3906 43.9254Z" fill="url(#paint1_linear_17_161)"/>
<path d="M36.4255 31.0268C36.4168 30.8816 36.3846 30.708 36.3269 30.5739C36.2029 30.2859 36.0282 29.987 35.8405 29.736C34.8624 28.4287 34.2134 27.7609 33.7243 27.2341C33.2352 26.7075 31.2224 24.8074 31.0907 24.4313C30.959 24.055 30.9167 23.8881 31.2906 23.3802C31.6645 22.8722 32.4828 21.5907 33.1224 20.669C33.5235 20.0909 33.8879 19.4864 34.2479 18.8822C34.6724 18.1699 35.0716 17.4403 35.4118 16.6837C35.5639 16.3454 35.702 16.0372 35.6078 15.6582C35.5447 15.4042 35.4018 15.1811 35.1359 15.1184C34.9907 15.0842 34.8323 15.0808 34.6837 15.0808C34.1288 15.0808 32.6803 15.0808 32.6803 15.0808C32.4184 15.0808 32.1566 15.0769 31.8947 15.0774C31.6262 15.0779 31.3555 15.0758 31.0879 15.0987C30.707 15.1313 30.4736 15.425 30.2821 15.7211C30.0477 16.0835 29.8344 16.4604 29.6071 16.8273C29.4516 17.078 29.2995 17.3307 29.1502 17.5851C28.9167 17.9823 28.6763 18.3753 28.4358 18.7684C28.336 18.9314 28.2358 19.0943 28.1375 19.2582C27.8553 19.7284 25.4098 22.9451 24.9207 23.0769C24.4317 23.2086 24.2624 23.171 24.2624 22.1739C24.2624 21.1769 24.2624 15.5148 24.2624 15.5148C24.2624 15.5148 24.2248 15.0782 23.8109 15.0782C23.3971 15.0782 21.4775 15.0782 21.4775 15.0782H17.5185C17.5185 15.0782 16.5873 15.082 16.9165 15.9192C17.2457 16.7563 18.2193 17.0103 18.2193 18.407C18.2193 19.8036 18.2193 23.881 18.2193 23.881C18.2193 23.881 18.0547 25.1085 16.9918 24.0926C16.1543 23.2922 15.4642 22.3457 14.8545 21.3645C14.2205 20.3443 13.7098 19.2844 13.2548 18.1739C13.1247 17.8563 12.9959 17.5382 12.8622 17.2221C12.7228 16.8921 12.5845 16.5616 12.4508 16.2293C12.2954 15.8432 12.1292 15.3387 11.7103 15.161C11.4998 15.0717 11.2668 15.0761 11.0424 15.0761C10.2099 15.0763 9.3775 15.0786 8.54509 15.0771C8.30084 15.0766 8.0566 15.0764 7.81235 15.077C7.23565 15.0783 6.51838 15.0613 6.38158 15.7818C6.30274 16.1967 6.45945 16.6397 6.59062 17.0284C6.65013 17.205 6.72347 17.3748 6.79 17.5485C7.12838 18.4318 7.54547 19.2835 7.97596 20.1247C8.99887 22.1233 10.0523 24.0654 11.4646 25.8221C12.8919 27.5973 14.5771 29.3177 16.5621 30.4661C17.1142 30.7854 17.6946 31.0549 18.2991 31.2597C20.6317 32.0498 23.19 31.9746 23.9801 31.4479C24.7702 30.9211 23.8296 27.4598 24.5444 27.046C25.2593 26.6321 26.5385 27.5351 27.479 28.3628C28.4195 29.1905 29.1343 29.9053 29.6611 30.4697C29.991 30.8231 30.2232 31.2449 30.6532 31.4969C31.3645 31.9138 32.3123 31.8676 33.1057 31.8698C33.548 31.8711 33.9904 31.8726 34.4328 31.867C34.7318 31.8633 35.0308 31.873 35.3295 31.8585C35.8204 31.8348 36.4624 31.641 36.4255 31.0268Z" fill="white"/>
</g>
<defs>
<linearGradient id="paint0_linear_17_161" x1="30.1973" y1="43.6489" x2="14.8027" y2="1.35105" gradientUnits="userSpaceOnUse">
<stop/>
<stop offset="0.1921" stop-color="#090909"/>
<stop offset="0.5054" stop-color="#212121"/>
<stop offset="0.8987" stop-color="#494948"/>
<stop offset="1" stop-color="#545453"/>
</linearGradient>
<linearGradient id="paint1_linear_17_161" x1="15.09" y1="12.2927" x2="39.8144" y2="37.0171" gradientUnits="userSpaceOnUse">
<stop/>
<stop offset="0.4833" stop-color="#090909" stop-opacity="0.5167"/>
<stop offset="1" stop-color="#181818" stop-opacity="0"/>
</linearGradient>
<clipPath id="clip0_17_161">
<rect width="45" height="45" fill="white"/>
</clipPath>
</defs>
</svg>
